<svg width="800" height="800" viewBox="0 0 800 800" fill="none" xmlns="http://www.w3.org/2000/svg">
<path d="M637.48 601.8H581.532C565.599 601.8 552.682 588.902 552.682 572.969C552.682 557.038 565.599 544.139 581.532 544.139H600.763C616.694 544.139 629.612 531.241 629.612 515.308C629.612 499.375 616.694 486.477 600.763 486.477H485.371C469.439 486.477 456.522 473.579 456.522 457.646C456.522 441.714 469.439 428.816 485.371 428.816H679.443C695.374 428.816 708.291 415.918 708.291 399.985C708.291 384.052 695.374 371.154 679.443 371.154H541.319C525.388 371.154 512.472 358.254 512.472 342.323C512.472 326.39 525.388 313.492 541.319 313.492H593.771C609.704 313.492 622.619 300.594 622.619 284.662C622.619 268.729 609.704 255.831 593.771 255.831H478.379C462.448 255.831 449.531 242.932 449.531 227C449.531 211.067 462.448 198.169 478.379 198.169H495.862C511.795 198.169 524.712 185.271 524.712 169.338C524.712 153.407 511.795 140.507 495.862 140.507H321.022C305.091 140.507 292.174 153.407 292.174 169.338C292.174 185.271 305.091 198.169 321.022 198.169H331.513C347.446 198.169 360.362 211.067 360.362 227C360.362 242.932 347.446 255.831 331.513 255.831H312.28C296.349 255.831 283.432 268.729 283.432 284.662C283.432 300.594 296.349 313.492 312.28 313.492H308.784C324.715 313.492 337.632 326.391 337.632 342.323C337.632 358.254 324.715 371.154 308.784 371.154H118.208C102.275 371.154 89.3584 384.052 89.3584 399.985C89.3584 415.918 102.275 428.816 118.208 428.816H167.16C183.091 428.816 196.008 441.714 196.008 457.646C196.008 473.579 183.091 486.477 167.16 486.477H160.167C144.234 486.477 131.317 499.375 131.317 515.308C131.317 531.241 144.234 544.139 160.167 544.139H291.295C307.226 544.139 320.143 557.038 320.143 572.969C320.143 588.902 307.226 601.8 291.295 601.8H224.855C208.922 601.8 196.005 614.699 196.005 630.631C196.005 646.564 208.922 659.462 224.855 659.462H637.455C653.387 659.462 666.304 646.564 666.304 630.631C666.305 614.699 653.388 601.8 637.455 601.8H637.48Z" fill="#FAAA8D"/>
<path d="M175.5 370.476L124.608 432.16L129.412 435.92L180.156 374.716L175.5 370.476Z" fill="#FF4000"/>
<path d="M129.408 437.52C129.064 437.52 128.718 437.409 128.426 437.182L123.62 433.445C123.28 433.179 123.06 432.787 123.012 432.356C122.965 431.926 123.094 431.496 123.369 431.161L174.265 369.469C174.544 369.131 174.95 368.923 175.386 368.892C175.823 368.861 176.254 369.011 176.578 369.305L181.233 373.544C181.867 374.119 181.934 375.092 181.388 375.751L130.644 436.939C130.328 437.319 129.872 437.518 129.41 437.518L129.408 437.52ZM126.89 431.93L129.168 433.7L177.948 374.884L175.667 372.807L126.891 431.931L126.89 431.93Z" fill="#322F31"/>
<path d="M125.708 453.52L155.84 512.12H162.248L130.816 450.72L125.708 453.52Z" fill="#FF4000"/>
<path d="M162.248 513.72H155.841C155.241 513.72 154.692 513.385 154.416 512.85L124.284 454.254C123.888 453.483 124.177 452.535 124.938 452.117L130.045 449.314C130.426 449.108 130.869 449.061 131.287 449.188C131.7 449.314 132.044 449.604 132.242 449.988L163.674 511.388C163.928 511.886 163.906 512.479 163.615 512.954C163.324 513.43 162.806 513.721 162.248 513.721V513.72ZM156.819 510.516H159.628L130.142 452.916L127.846 454.175L156.819 510.519V510.516Z" fill="#322F31"/>
<path d="M176.068 323.008C179.506 326.449 179.506 332.027 176.068 335.466C172.626 338.906 167.049 338.906 163.608 335.466C160.17 332.027 160.17 326.449 163.608 323.008C167.049 319.568 172.626 319.568 176.068 323.008Z" fill="#FF4000"/>
<path d="M169.836 339.648C167.055 339.648 164.44 338.566 162.473 336.599C158.416 332.54 158.416 325.936 162.473 321.876C164.44 319.909 167.055 318.827 169.836 318.827C172.617 318.827 175.232 319.909 177.198 321.876C181.256 325.936 181.256 332.54 177.198 336.599C175.232 338.566 172.617 339.648 169.836 339.648ZM169.836 322.031C167.91 322.031 166.101 322.78 164.738 324.141C161.93 326.952 161.93 331.525 164.738 334.334C166.1 335.695 167.91 336.444 169.836 336.444C171.761 336.444 173.571 335.695 174.934 334.334C177.742 331.525 177.742 326.952 174.934 324.141C173.571 322.78 171.761 322.031 169.836 322.031V322.031Z" fill="#322F31"/>
<path d="M224.952 362.464C230.996 368.51 230.996 378.311 224.952 384.356C218.908 390.398 209.105 390.4 203.06 384.356C197.016 378.31 197.018 368.508 203.06 362.464C209.106 356.42 218.908 356.42 224.952 362.464Z" fill="white"/>
<path d="M214.008 390.488C209.445 390.488 205.155 388.711 201.93 385.486C195.271 378.826 195.271 367.989 201.93 361.329C205.156 358.104 209.445 356.327 214.008 356.327C218.572 356.327 222.861 358.104 226.086 361.329C232.745 367.989 232.745 378.826 226.086 385.486C222.861 388.711 218.571 390.488 214.008 390.488ZM214.008 359.53C210.301 359.53 206.816 360.974 204.194 363.594C198.786 369.004 198.786 377.81 204.194 383.221C206.816 385.841 210.301 387.285 214.008 387.285C217.715 387.285 221.2 385.841 223.822 383.221C229.23 377.81 229.23 369.004 223.822 363.594C221.202 360.974 217.717 359.53 214.008 359.53Z" fill="#322F31"/>
<path d="M179.466 316.201L156.815 338.853L164.742 346.78L187.394 324.129L179.466 316.201Z" fill="#FF4000"/>
<path d="M164.74 348.396C164.33 348.396 163.92 348.24 163.608 347.927L155.68 340C155.055 339.374 155.055 338.36 155.68 337.735L178.333 315.082C178.633 314.782 179.04 314.613 179.465 314.613C179.891 314.613 180.297 314.782 180.598 315.082L188.525 323.011C189.15 323.637 189.15 324.65 188.525 325.276L165.872 347.927C165.56 348.24 165.15 348.396 164.74 348.396ZM159.078 338.867L164.74 344.53L185.128 324.144L179.465 318.48L159.078 338.867Z" fill="#322F31"/>
<path d="M239.492 358.12L198.716 398.892L156.812 347.924L188.524 316.212L239.492 358.12Z" fill="#FF4000"/>
<path d="M198.716 400H198.638C198.188 400 197.767 400.013 197.479 399.662L155.575 348.818C155.051 348.182 155.096 347.315 155.68 346.732L187.392 315.05C187.977 314.468 188.909 314.438 189.541 314.96L240.509 356.872C240.858 357.16 241.071 357.584 241.093 358.034C241.114 358.488 240.944 358.929 240.625 359.248L199.853 399.776C199.553 400.078 199.144 400 198.72 400H198.716ZM158.971 348.032L198.832 396.512L237.109 358.235L188.629 318.374L158.972 348.03L158.971 348.032Z" fill="#322F31"/>
<g opacity="0.2">
<path opacity="0.2" d="M217.972 377.372L237.04 358.308L188.632 318.376L173.8 333.2L217.972 377.372Z" fill="#FF4000"/>
</g>
<g opacity="0.2">
<path opacity="0.2" d="M179.463 318.481L169.269 328.674L171.534 330.939L181.728 320.746L179.463 318.481Z" fill="#FF4000"/>
</g>
<g opacity="0.2">
<path opacity="0.2" d="M171.16 322.256C171.16 322.256 166.532 321.002 163.324 325.829C163.324 325.829 165.78 325.37 167.007 326.409L171.16 322.256V322.256Z" fill="#FF4000"/>
</g>
<g opacity="0.2">
<path opacity="0.2" d="M212.164 387.52L214.576 387.568L227.032 375.108L228.164 373.976L228.068 371.808L212.308 387.568" fill="#FF4000"/>
</g>
<path d="M136.968 442.12C136.968 448.408 131.87 453.504 125.582 453.504C119.294 453.504 114.197 448.408 114.197 442.12C114.197 435.83 119.294 430.733 125.582 430.733C131.87 430.733 136.968 435.83 136.968 442.12Z" fill="#FF4000"/>
<path d="M125.58 455.12C118.419 455.12 112.593 449.295 112.593 442.134C112.593 434.972 118.419 429.145 125.58 429.145C132.741 429.145 138.567 434.972 138.567 442.134C138.567 449.295 132.741 455.12 125.58 455.12ZM125.58 432.349C120.185 432.349 115.796 436.738 115.796 442.134C115.796 447.528 120.186 451.916 125.58 451.916C130.975 451.916 135.364 447.528 135.364 442.134C135.364 436.737 130.975 432.349 125.58 432.349Z" fill="#322F31"/>
<g opacity="0.2">
<path opacity="0.2" d="M125.408 432.36V451.928C130.213 451.928 135.192 447.548 135.192 442.145C135.192 436.74 130.213 432.36 125.408 432.36V432.36Z" fill="#FF4000"/>
</g>
<path d="M130.816 442.12C130.816 445.009 128.473 447.352 125.582 447.352C122.692 447.352 120.349 445.009 120.349 442.12C120.349 439.228 122.692 436.885 125.582 436.885C128.473 436.885 130.816 439.228 130.816 442.12Z" fill="#FF4000"/>
<path d="M125.58 448.96C121.81 448.96 118.745 445.894 118.745 442.126C118.745 438.356 121.811 435.289 125.58 435.289C129.35 435.289 132.416 438.356 132.416 442.126C132.416 445.894 129.35 448.96 125.58 448.96ZM125.58 438.493C123.578 438.493 121.948 440.122 121.948 442.126C121.948 444.128 123.578 445.757 125.58 445.757C127.582 445.757 129.212 444.128 129.212 442.126C129.212 440.122 127.582 438.493 125.58 438.493Z" fill="#322F31"/>
<path d="M193.676 545.76C194.064 543.782 194.28 541.74 194.28 539.648C194.28 522.235 180.164 508.12 162.752 508.12C145.34 508.12 131.223 522.235 131.223 539.648C131.223 541.74 131.438 543.782 131.827 545.76H193.675H193.676Z" fill="#FF4000"/>
<path d="M193.676 547.36H131.828C131.063 547.36 130.405 546.818 130.256 546.068C129.835 543.931 129.622 541.77 129.622 539.646C129.622 521.377 144.485 506.516 162.753 506.516C181.021 506.516 195.882 521.377 195.882 539.646C195.882 541.762 195.67 543.922 195.249 546.066C195.102 546.817 194.444 547.36 193.677 547.36H193.676ZM133.172 544.156H192.328C192.56 542.644 192.677 541.131 192.677 539.646C192.677 523.145 179.252 509.72 162.751 509.72C146.249 509.72 132.824 523.145 132.824 539.646C132.824 541.136 132.941 542.648 133.171 544.156H133.172Z" fill="#322F31"/>
<g opacity="0.2">
<path opacity="0.2" d="M162.752 508.12C157.435 508.12 152.435 509.45 148.04 511.772C149.704 511.502 151.401 511.323 153.142 511.323C170.554 511.323 184.669 525.438 184.669 542.851C184.669 543.833 184.613 544.801 184.522 545.76H193.676C194.064 543.782 194.28 541.74 194.28 539.648C194.28 522.235 180.164 508.12 162.752 508.12Z" fill="#FF4000"/>
</g>
<g opacity="0.2">
<path opacity="0.2" d="M176.396 374.108L130.3 430.04L131.684 430.76L177.396 375.444L176.396 374.108Z" fill="#FF4000"/>
</g>
<g opacity="0.2">
<path opacity="0.2" d="M130.748 454.04L129.48 454.6L156.576 507.32H158.044L130.748 454.04Z" fill="#FF4000"/>
</g>
<path d="M559.48 523.88C559.48 528.895 555.413 532.96 550.398 532.96H256.226C251.212 532.96 247.145 528.895 247.145 523.88V325.808C247.145 320.793 251.212 316.728 256.226 316.728H550.398C555.413 316.728 559.48 320.793 559.48 325.808V523.88Z" fill="white"/>
<path d="M550.4 534.56H256.228C250.337 534.56 245.545 529.768 245.545 523.878V325.806C245.545 319.915 250.337 315.124 256.228 315.124H550.4C556.291 315.124 561.084 319.915 561.084 325.806V523.878C561.084 529.768 556.291 534.56 550.4 534.56L550.4 534.56ZM256.228 318.328C252.103 318.328 248.748 321.683 248.748 325.806V523.878C248.748 528.002 252.103 531.357 256.228 531.357H550.4C554.525 531.357 557.88 528.001 557.88 523.878V325.806C557.88 321.683 554.524 318.328 550.4 318.328H256.228Z" fill="#322F31"/>
<g opacity="0.2">
<path opacity="0.2" d="M548.8 316.712H545.869C549.85 316.712 553.077 319.939 553.077 323.92V520.128H557.882V325.792C557.882 320.776 553.815 316.712 548.8 316.712V316.712Z" fill="#FF4000"/>
</g>
<g opacity="0.2">
<path opacity="0.2" d="M540.24 475.8C540.24 480.815 536.173 484.88 531.158 484.88H275.43C270.416 484.88 266.349 480.815 266.349 475.8V338.592C266.349 333.577 270.416 329.512 275.43 329.512H531.158C536.173 329.512 540.24 333.578 540.24 338.592V475.8Z" fill="#FF4000"/>
</g>
<path d="M540.24 520.64C540.24 525.654 536.173 529.72 531.158 529.72H275.43C270.416 529.72 266.349 525.654 266.349 520.64V343.392C266.349 338.377 270.416 334.312 275.43 334.312H531.158C536.173 334.312 540.24 338.377 540.24 343.392V520.64Z" fill="#C7C7C7"/>
<path d="M531.16 531.36H275.432C269.541 531.36 264.749 526.569 264.749 520.678V343.43C264.749 337.54 269.541 332.749 275.432 332.749H531.16C537.051 332.749 541.843 337.54 541.843 343.43V520.678C541.843 526.569 537.05 531.36 531.16 531.36V531.36ZM275.432 335.952C271.307 335.952 267.952 339.307 267.952 343.43V520.678C267.952 524.801 271.308 528.156 275.432 528.156H531.16C535.285 528.156 538.64 524.801 538.64 520.678V343.43C538.64 339.307 535.284 335.952 531.16 335.952H275.432Z" fill="#322F31"/>
<g opacity="0.41">
<path opacity="0.41" d="M530.76 335.932H357.852L538.644 462.468V345.012C538.644 338.203 535.208 335.932 530.76 335.932H530.76Z" fill="white"/>
</g>
<path d="M613.44 521.72H194.76C189.745 521.72 187.444 525.996 188.882 530.8C189.36 532.402 190.34 536.12 190.753 537.739C191.993 542.597 196.152 545.746 201.167 545.746H607.047C612.062 545.746 616.221 542.597 617.462 537.739C617.875 536.12 618.854 532.402 619.333 530.8C620.77 525.997 618.469 521.72 613.454 521.72H613.44Z" fill="white"/>
<path d="M607.04 547.36H201.16C195.41 547.36 190.6 543.658 189.194 538.147C188.797 536.592 187.814 532.856 187.34 531.271C186.422 528.207 186.807 525.224 188.396 523.092C189.818 521.182 192.075 520.131 194.753 520.131H613.433C616.11 520.131 618.368 521.182 619.79 523.092C621.379 525.224 621.764 528.207 620.846 531.272C620.372 532.857 619.389 536.592 618.992 538.147C617.586 543.658 612.777 547.36 607.026 547.36H607.04ZM194.76 523.334C193.096 523.334 191.786 523.911 190.972 525.005C189.994 526.317 189.792 528.267 190.416 530.352C190.909 532.004 191.89 535.728 192.304 537.355C193.36 541.486 196.839 544.156 201.167 544.156H607.047C611.376 544.156 614.854 541.486 615.91 537.355C616.324 535.729 617.305 532.004 617.798 530.354C618.422 528.267 618.22 526.317 617.243 525.005C616.428 523.912 615.118 523.334 613.454 523.334H194.774H194.76Z" fill="#322F31"/>
<g opacity="0.2">
<path opacity="0.2" d="M430.76 521.72H359.272V527.056C359.272 532.07 363.339 536.136 368.354 536.136H438.286C443.3 536.136 447.367 532.07 447.367 527.056V521.72H430.76V521.72Z" fill="#FF4000"/>
</g>
<path d="M430.76 521.72H360.944C361.476 526.228 365.305 529.729 369.957 529.729H436.685C441.337 529.729 445.166 526.228 445.698 521.72H430.761H430.76Z" fill="#FF4000"/>
<path d="M436.68 531.36H369.952C364.542 531.36 359.982 527.308 359.348 521.937C359.295 521.483 359.438 521.027 359.742 520.686C360.046 520.344 360.482 520.148 360.939 520.148H445.691C446.148 520.148 446.584 520.343 446.888 520.686C447.193 521.027 447.335 521.483 447.282 521.937C446.648 527.308 442.089 531.36 436.678 531.36H436.68ZM362.968 523.351C364.049 526.185 366.792 528.156 369.95 528.156H436.678C439.837 528.156 442.58 526.185 443.661 523.351H362.969H362.968Z" fill="#322F31"/>
<g opacity="0.2">
<path opacity="0.2" d="M192.148 539.36C194.069 542.351 197.371 544.166 201.172 544.166H607.052C610.853 544.166 614.155 542.351 616.076 539.36H192.156H192.148Z" fill="#FF4000"/>
</g>
<g opacity="0.2">
<path opacity="0.2" d="M553.064 516.92H247.136V520.124H553.064V516.92Z" fill="#FF4000"/>
</g>
<path d="M404.12 326.722C405.115 326.722 405.922 325.915 405.922 324.92C405.922 323.925 405.115 323.118 404.12 323.118C403.125 323.118 402.318 323.925 402.318 324.92C402.318 325.915 403.125 326.722 404.12 326.722Z" fill="#322F31"/>
<g opacity="0.2">
<path opacity="0.2" d="M546.64 316.792C546.906 316.761 547.166 316.711 547.441 316.711H546.64V316.792Z" fill="#FF4000"/>
</g>
<path d="M608.599 547H150.401C149.627 547 149 546.329 149 545.5C149 544.671 149.627 544 150.401 544H608.599C609.374 544 610 544.671 610 545.5C610 546.329 609.374 547 608.599 547Z" fill="#322F31"/>
<path d="M251.408 512.52C251.408 500.401 241.618 490.575 229.517 490.5V487.559C229.517 482.544 225.45 478.479 220.436 478.479H184.141C179.126 478.479 175.059 482.544 175.059 487.559V536.671C175.059 541.686 179.126 545.751 184.141 545.751H220.436C225.45 545.751 229.517 541.686 229.517 536.671V534.54C241.618 534.466 251.408 524.639 251.408 512.52V512.52ZM229.518 524.93V500.11C236.312 500.183 241.798 505.708 241.798 512.52C241.798 519.331 236.312 524.856 229.518 524.93V524.93Z" fill="#EAE8E1"/>
<path d="M220.436 547.36H184.141C178.25 547.36 173.458 542.568 173.458 536.678V487.566C173.458 481.675 178.251 476.884 184.141 476.884H220.436C226.327 476.884 231.119 481.676 231.119 487.566V488.968C243.328 489.865 253.01 500.117 253.01 512.527C253.01 524.937 243.328 535.188 231.119 536.086V536.678C231.119 542.568 226.327 547.36 220.436 547.36V547.36ZM184.141 480.088C180.016 480.088 176.661 483.444 176.661 487.566V536.678C176.661 540.802 180.016 544.157 184.141 544.157H220.436C224.561 544.157 227.916 540.802 227.916 536.678V534.548C227.916 533.668 228.628 532.953 229.508 532.946C240.7 532.878 249.806 523.718 249.806 512.528C249.806 501.338 240.7 492.178 229.508 492.109C228.627 492.103 227.916 491.388 227.916 490.507V487.566C227.916 483.443 224.561 480.088 220.436 480.088H184.141ZM229.517 526.54C229.095 526.54 228.692 526.374 228.391 526.077C228.086 525.777 227.916 525.368 227.916 524.938V500.118C227.916 499.69 228.086 499.28 228.391 498.979C228.696 498.677 229.126 498.487 229.534 498.516C237.18 498.599 243.399 504.884 243.399 512.528C243.399 520.172 237.18 526.457 229.534 526.54C229.528 526.54 229.524 526.54 229.517 526.54V526.54ZM231.119 501.859V523.198C236.251 522.359 240.196 517.875 240.196 512.528C240.196 507.182 236.251 502.698 231.119 501.859Z" fill="#322F31"/>
<g opacity="0.2">
<path opacity="0.2" d="M229.52 490.52V487.579C229.52 482.564 225.453 478.5 220.438 478.5H208.698V545.772H220.438C225.453 545.772 229.52 541.706 229.52 536.692V534.561C241.62 534.486 251.411 524.66 251.411 512.541C251.411 500.422 241.62 490.595 229.52 490.52V490.52ZM229.52 524.95V500.13C236.315 500.204 241.8 505.728 241.8 512.54C241.8 519.352 236.315 524.877 229.52 524.95V524.95Z" fill="#FF4000"/>
</g>
<path d="M219.908 486.48H184.67C183.785 486.48 183.069 485.764 183.069 484.878C183.069 483.993 183.785 483.276 184.67 483.276H219.908C220.793 483.276 221.51 483.993 221.51 484.878C221.51 485.764 220.793 486.48 219.908 486.48Z" fill="#322F31"/>
</svg>